<svg width="26" height="24" viewBox="0 0 26 24" fill="none" xmlns="http://www.w3.org/2000/svg">
<path d="M20.5 10.75C20.5 9.55125 19.65 8.54875 18.5238 8.3075C18.9738 7.55625 19.25 6.6875 19.25 5.75C19.25 2.9925 17.0075 0.75 14.25 0.75C12.3538 0.75 10.7238 1.82125 9.875 3.38C9.02625 1.82125 7.39625 0.75 5.5 0.75C2.7425 0.75 0.5 2.9925 0.5 5.75C0.5 6.8775 0.89 7.90875 1.52125 8.745C1.20574 8.97572 0.948904 9.27741 0.7715 9.6257C0.594096 9.974 0.501092 10.3591 0.5 10.75V20.75C0.5 22.1287 1.62125 23.25 3 23.25H18C19.3787 23.25 20.5 22.1287 20.5 20.75V17.4525L25.5 19.9525V11.2025L20.5 13.7025V10.75ZM14.25 3.25C15.6287 3.25 16.75 4.37125 16.75 5.75C16.75 7.12875 15.6287 8.25 14.25 8.25C12.8713 8.25 11.75 7.12875 11.75 5.75C11.75 4.37125 12.8713 3.25 14.25 3.25ZM5.5 3.25C6.87875 3.25 8 4.37125 8 5.75C8 7.12875 6.87875 8.25 5.5 8.25C4.12125 8.25 3 7.12875 3 5.75C3 4.37125 4.12125 3.25 5.5 3.25ZM3 20.75V10.75H18L18.0025 20.75H3Z" fill="#F8F8F8"/>
</svg>
